<?xml version="1.0" encoding="UTF-8" standalone="no"?><!DOCTYPE svg PUBLIC "-//W3C//DTD SVG 1.1//EN" "http://www.w3.org/Graphics/SVG/1.1/DTD/svg11.dtd"><svg width="100%" height="100%" viewBox="0 0 365 949" version="1.1" xmlns="http://www.w3.org/2000/svg" xmlns:xlink="http://www.w3.org/1999/xlink" xml:space="preserve" xmlns:serif="http://www.serif.com/" style="fill-rule:evenodd;clip-rule:evenodd;stroke-linejoin:round;stroke-miterlimit:10;"><g id="Isometric-outline" serif:id="Isometric outline"><path d="M203.137,675.985l-17.536,-10.338c-58.558,-33.07 -111.724,7.959 -111.724,91.963l0,5.027l240.983,142.063l0,-10.749c0,-84.004 -50.02,-181.591 -111.723,-217.966Z" style="fill:#fff;fill-rule:nonzero;stroke:#000;stroke-width:3px;"/><path d="M314.859,892.667l0,12.032l-72.189,42.6l-24.159,-42.6l-120.441,-184.599l17.406,-10.827c-9.782,-5.956 -38.573,-21.059 -65.58,-11.512l55.781,-32.906c25.187,-14.856 56.44,-14.487 81.03,1.36c83.18,42.789 112.945,131.993 123.142,179.218c3.35,15.511 5.01,31.35 5.01,47.234Z" style="fill:#fff;fill-rule:nonzero;stroke:#000;stroke-width:3px;"/><path d="M130.948,718.585l-17.536,-10.338c-61.704,-36.375 -111.724,2.236 -111.724,86.241l-0,13.697l240.983,139.115l-0,-10.749c-0,-84.004 -50.02,-181.591 -111.723,-217.966Z" style="fill:#fff;fill-rule:nonzero;stroke:#000;stroke-width:3px;"/><path d="M25.717,516.044l-0,111.292l240.954,139.117l-0,-111.294l-240.954,-139.115Z" style="fill:#fff;fill-rule:nonzero;stroke:#000;stroke-width:3px;"/><path d="M266.668,655.159l96.382,-55.646l0.001,111.291l-96.383,55.649l-0,-111.294Z" style="fill:#fff;fill-rule:nonzero;stroke:#000;stroke-width:3px;"/><path d="M266.67,655.159l-240.954,-139.115l96.381,-55.646l240.955,139.115l-96.382,55.646Z" style="fill:#fff;fill-rule:nonzero;stroke:#000;stroke-width:3px;"/><path d="M289.925,424.162c-0,59.861 -48.527,108.388 -108.388,108.388c-59.861,-0 -108.388,-48.527 -108.388,-108.388c-0,-59.861 48.527,-108.388 108.388,-108.388c59.861,-0 108.388,48.527 108.388,108.388" style="fill:#fff;fill-rule:nonzero;stroke:#000;stroke-width:1px;stroke-miterlimit:2;"/><path d="M289.925,424.162c-0,-59.821 -48.567,-108.388 -108.388,-108.388c-59.821,-0 -108.388,48.567 -108.388,108.388c-0,59.821 48.567,108.388 108.388,108.388c59.821,-0 108.388,-48.567 108.388,-108.388Z" style="fill:#fff;stroke:#000;stroke-width:3px;"/><path d="M50.436,279.397c0,-0 28.421,91.16 122.852,84.838l-23.043,-74.024l-99.809,-10.814Z" style="fill:#fff;fill-rule:nonzero;stroke:#000;stroke-width:3px;"/><path d="M230.194,342.199c-47.47,39.926 -93.146,24.963 -102.021,-33.423l171.902,-144.586c8.875,58.386 -22.412,138.083 -69.881,178.009" style="fill:#fff;fill-rule:nonzero;stroke:#000;stroke-width:1px;stroke-miterlimit:2;"/><path d="M230.194,342.199c-47.47,39.926 -93.146,24.963 -102.021,-33.423l171.902,-144.586c8.875,58.386 -22.412,138.083 -69.881,178.009Z" style="fill:#fff;fill-rule:nonzero;stroke:#000;stroke-width:3px;"/><path d="M129.088,308.256l-78.651,-28.859l170.391,-142.994l80.162,27.267l-171.902,144.586Z" style="fill:#fff;fill-rule:nonzero;stroke:#000;stroke-width:3px;"/><path d="M129.088,308.256l-0,-304.679" style="fill:none;fill-rule:nonzero;stroke:#000;stroke-width:3px;"/><path d="M50.436,279.397l0,-275.82" style="fill:none;fill-rule:nonzero;stroke:#000;stroke-width:3px;"/><path d="M300.99,162.612l-0,-160.613" style="fill:none;fill-rule:nonzero;stroke:#000;stroke-width:3px;"/><path d="M220.92,136.403l0,-132.826" style="fill:none;fill-rule:nonzero;stroke:#000;stroke-width:3px;"/></g></svg>